<?xml version="1.0"?>
<svg xmlns="http://www.w3.org/2000/svg" xmlns:xlink="http://www.w3.org/1999/xlink" xmlns:svgjs="http://svgjs.com/svgjs" version="1.1" width="512" height="512" x="0" y="0" viewBox="0 0 554.625 554.625" style="enable-background:new 0 0 512 512" xml:space="preserve" class=""><g>
<g xmlns="http://www.w3.org/2000/svg">
	<g id="Layer_2_12_">
		<path d="M93.808,365.67c19.01-24.729,42.792-54.889,87.879-54.889c23.877,0,43.576,5.288,59.45,12.642    c7.65-9.926,17.05-22.204,17.05-22.204c10.959-14.344,19.326-13.148,28.688,0l20.253,25.513    c16.888-8.988,38.557-15.95,65.81-15.95c41.291,0,64.7,25.293,82.955,48.549c26.01-36.672,41.357-81.443,41.357-129.83    c0-124.112-100.607-224.719-224.719-224.719C148.419,4.781,47.812,105.388,47.812,229.5    C47.812,280.707,64.968,327.879,93.808,365.67z M372.938,186.469c21.124,0,38.25,17.126,38.25,38.25s-17.126,38.25-38.25,38.25    s-38.25-17.126-38.25-38.25S351.813,186.469,372.938,186.469z M172.125,186.469c21.124,0,38.25,17.126,38.25,38.25    s-17.126,38.25-38.25,38.25s-38.25-17.126-38.25-38.25S151.001,186.469,172.125,186.469z" fill="#ff4800" data-original="#000000" style="" class=""/>
		<path d="M229.5,479.569c-9.323,5.011-18.972,9.056-28.688,12.354v57.92H229.5V479.569z" fill="#ff4800" data-original="#000000" style="" class=""/>
		<path d="M286.875,453.712v-2.524c-3.271-3.261-6.589-6.455-9.562-10.05c-3.815,4.608-7.976,8.826-12.269,12.89    c-2.209,2.095-4.542,3.987-6.856,5.929v89.888h28.688V453.712z" fill="#ff4800" data-original="#000000" style="" class=""/>
		<path d="M344.25,488.434c-9.859-3.94-19.45-8.874-28.688-14.621v76.031h28.688V488.434z" fill="#ff4800" data-original="#000000" style="" class=""/>
		<path d="M172.125,499.268c-9.878,1.722-19.584,2.764-28.688,2.764v47.812h28.688V499.268z" fill="#ff4800" data-original="#000000" style="" class=""/>
		<path d="M401.625,549.844v-48.329c-9.266-0.563-18.867-1.894-28.688-4.131v52.46H401.625z" fill="#ff4800" data-original="#000000" style="" class=""/>
		<path d="M411.188,482.906c124.312,0,143.438-86.062,143.438-86.062c-9.562,9.562-28.688,19.125-57.375,19.125    c-23.17,0-37.37-20.215-53.454-41.052c-17.117-22.156-36.356-45.011-70.858-45.011c-24.06,0-43.099,6.206-57.719,14.124    c-2.879,1.559-5.613,3.155-8.147,4.819c-20.397,13.35-29.759,28.869-29.759,28.869s-9.256-15.377-29.453-28.688    c-5.164-3.404-11.102-6.617-17.729-9.457c-13.158-5.643-29.166-9.668-48.444-9.668c-37.542,0-57.031,27.071-75.353,50.844    c-14.344,18.618-27.961,35.219-48.96,35.219c-28.688,0-47.812-9.562-57.375-19.125c0,0,19.125,86.062,143.438,86.062    c23.141,0,56.744-7.076,86.062-25.312c3.002-1.865,5.948-3.854,8.845-5.968c3.012-2.189,5.948-4.513,8.817-6.98    c11.934-10.261,22.443-22.835,30.15-38.25c7.707,15.415,18.227,27.989,30.15,38.25c2.257,1.941,4.533,3.845,6.895,5.613    c0.393,0.297,0.804,0.564,1.205,0.852c27.646,20.377,60.933,29.52,86.062,31.374C404.953,482.744,408.185,482.906,411.188,482.906    z" fill="#ff4800" data-original="#000000" style="" class=""/>
	</g>
</g>
<g xmlns="http://www.w3.org/2000/svg">
</g>
<g xmlns="http://www.w3.org/2000/svg">
</g>
<g xmlns="http://www.w3.org/2000/svg">
</g>
<g xmlns="http://www.w3.org/2000/svg">
</g>
<g xmlns="http://www.w3.org/2000/svg">
</g>
<g xmlns="http://www.w3.org/2000/svg">
</g>
<g xmlns="http://www.w3.org/2000/svg">
</g>
<g xmlns="http://www.w3.org/2000/svg">
</g>
<g xmlns="http://www.w3.org/2000/svg">
</g>
<g xmlns="http://www.w3.org/2000/svg">
</g>
<g xmlns="http://www.w3.org/2000/svg">
</g>
<g xmlns="http://www.w3.org/2000/svg">
</g>
<g xmlns="http://www.w3.org/2000/svg">
</g>
<g xmlns="http://www.w3.org/2000/svg">
</g>
<g xmlns="http://www.w3.org/2000/svg">
</g>
</g></svg>
