<?xml version="1.0"?>
<svg xmlns="http://www.w3.org/2000/svg" xmlns:xlink="http://www.w3.org/1999/xlink" xmlns:svgjs="http://svgjs.com/svgjs" version="1.1" width="512" height="512" x="0" y="0" viewBox="0 0 512 512" style="enable-background:new 0 0 512 512" xml:space="preserve" class=""><g>
<g xmlns="http://www.w3.org/2000/svg">
	<g>
		<path d="M506.353,34.489c-2.924-12.203-13.305-20.547-25.831-20.765c-12.486-0.218-23.179,7.757-26.523,19.844    c-14.576,52.677-60.782,113.767-123.238,136.407c-20.502-15.603-46.503-24.952-74.764-24.952c-28.26,0-54.26,9.348-74.762,24.95    C118.781,147.332,72.577,86.245,58.002,33.569c-3.344-12.088-14.017-20.085-26.523-19.844    C18.952,13.942,8.572,22.287,5.647,34.489c-6.865,28.645-10.911,72.213,8.801,117.095    c20.336,46.305,61.374,84.518,122.065,113.758c0.871,13.311,4.385,24.882,10.507,34.607c1.278,48.013,21.53,92.99,37.907,129.36    c6.323,14.042,11.784,26.169,15.145,36.256c6.522,19.569,24.662,32.716,45.14,32.716h21.565c20.479,0,38.62-13.147,45.14-32.716    c3.362-10.088,8.824-22.217,15.149-36.26c16.38-36.372,36.637-81.353,37.912-129.37c6.116-9.721,9.627-21.285,10.498-34.589    c60.696-29.24,101.735-67.454,122.072-113.761C517.264,106.701,513.218,63.134,506.353,34.489z M139.379,232.902    C37.54,179.912,23.182,109.166,32.591,53.861c10.845,31.466,29.704,62.291,53.95,87.917    c21.348,22.564,45.677,40.028,71.564,51.536C149.369,205.07,142.918,218.461,139.379,232.902z M292.846,305.473    c-8.3,1.07-14.161,8.665-13.091,16.964c1.071,8.3,8.663,14.163,16.964,13.09c13.456-1.734,25.008-4.601,34.845-8.66    c-6.178,32.365-20.245,63.616-32.125,89.993c-6.386,14.181-12.418,27.576-16.267,39.123c-2.391,7.174-8.979,11.994-16.393,11.994    h-21.566c-7.414,0-14.001-4.82-16.393-11.994c-3.848-11.546-9.879-24.938-16.264-39.117    c-11.878-26.379-25.944-57.629-32.12-89.995c9.837,4.059,21.39,6.924,34.845,8.658c0.658,0.085,1.309,0.126,1.956,0.126    c7.505,0,14.023-5.575,15.008-13.216c1.07-8.3-4.792-15.894-13.091-16.964c-37.344-4.811-52.576-18.375-52.576-46.816    c0-20.937,8.331-40.095,22.063-54.748c0.231,0.059,0.461,0.122,0.692,0.179l0.304-1.225c16.376-16.9,40.058-27.538,66.358-27.538    c26.306,0,49.992,10.642,66.368,27.548l0.302,1.214c0.229-0.057,0.457-0.12,0.686-0.178c13.731,14.653,22.063,33.81,22.063,54.747    C345.415,287.097,330.185,300.661,292.846,305.473z M372.615,232.905c-3.538-14.441-9.989-27.832-18.725-39.589    c25.89-11.508,50.22-28.974,71.569-51.539c24.246-25.626,43.105-56.449,53.95-87.916    C488.818,109.168,474.46,179.915,372.615,232.905z" fill="#ff4800" data-original="#000000" style="" class=""/>
	</g>
</g>
<g xmlns="http://www.w3.org/2000/svg">
	<g>
		<path d="M283.574,399.046c-5.915-5.918-15.509-5.918-21.425,0L256,405.194l-6.148-6.147c-5.916-5.917-15.51-5.917-21.427,0    c-5.917,5.917-5.917,15.51,0,21.427l16.862,16.862c2.959,2.959,6.836,4.438,10.713,4.438c3.877,0,7.755-1.479,10.713-4.438    l16.862-16.862C289.491,414.556,289.491,404.963,283.574,399.046z" fill="#ff4800" data-original="#000000" style="" class=""/>
	</g>
</g>
<g xmlns="http://www.w3.org/2000/svg">
</g>
<g xmlns="http://www.w3.org/2000/svg">
</g>
<g xmlns="http://www.w3.org/2000/svg">
</g>
<g xmlns="http://www.w3.org/2000/svg">
</g>
<g xmlns="http://www.w3.org/2000/svg">
</g>
<g xmlns="http://www.w3.org/2000/svg">
</g>
<g xmlns="http://www.w3.org/2000/svg">
</g>
<g xmlns="http://www.w3.org/2000/svg">
</g>
<g xmlns="http://www.w3.org/2000/svg">
</g>
<g xmlns="http://www.w3.org/2000/svg">
</g>
<g xmlns="http://www.w3.org/2000/svg">
</g>
<g xmlns="http://www.w3.org/2000/svg">
</g>
<g xmlns="http://www.w3.org/2000/svg">
</g>
<g xmlns="http://www.w3.org/2000/svg">
</g>
<g xmlns="http://www.w3.org/2000/svg">
</g>
</g></svg>
