<?xml version="1.0"?>
<svg xmlns="http://www.w3.org/2000/svg" xmlns:xlink="http://www.w3.org/1999/xlink" xmlns:svgjs="http://svgjs.com/svgjs" version="1.1" width="512" height="512" x="0" y="0" viewBox="0 0 512 512" style="enable-background:new 0 0 512 512" xml:space="preserve" class=""><g><path xmlns="http://www.w3.org/2000/svg" d="m232.085938 199.222656h47.828124l4.496094-44.980468h-56.820312zm0 0" fill="#ffffff" data-original="#000000" style="" class=""/><path xmlns="http://www.w3.org/2000/svg" d="m197.4375 154.242188h-58.097656l8.992187 44.980468h53.605469zm0 0" fill="#ffffff" data-original="#000000" style="" class=""/><path xmlns="http://www.w3.org/2000/svg" d="m154.332031 229.222656 4.054688 20.273438c2.632812 13.160156 16.710937 24.703125 30.132812 24.703125h20.914063l-4.496094-44.976563zm0 0" fill="#ffffff" data-original="#000000" style="" class=""/><path xmlns="http://www.w3.org/2000/svg" d="m239.582031 274.199219h32.832031l4.5-44.976563h-41.828124zm0 0" fill="#ffffff" data-original="#000000" style="" class=""/><path xmlns="http://www.w3.org/2000/svg" d="m456.832031 0h-401.664062c-30.421875 0-55.167969 24.746094-55.167969 55.167969v243.132812c0 30.417969 24.746094 55.167969 55.167969 55.167969h401.664062c30.421875 0 55.167969-24.75 55.167969-55.167969v-243.132812c0-30.421875-24.746094-55.167969-55.167969-55.167969zm-50.878906 154.242188h-2.695313l-20.230468 101.136718c-5.46875 27.375-31.628906 48.820313-59.546875 48.820313h-134.960938c-27.917969 0-54.078125-21.445313-59.550781-48.820313l-20.226562-101.136718h-2.695313c-8.285156 0-15-6.714844-15-15 0-8.28125 6.714844-15 15-15h31.273437l70.585938-70.582032c5.855469-5.855468 15.355469-5.855468 21.210938 0 5.859374 5.859375 5.859374 15.355469 0 21.214844l-49.371094 49.367188h152.507812l-49.371094-49.367188c-5.859374-5.859375-5.859374-15.355469 0-21.214844 5.855469-5.855468 15.355469-5.855468 21.214844 0l70.582032 70.582032h31.277343c8.28125 0 15 6.71875 15 15-.003906 8.285156-6.71875 15-15.003906 15zm0 0" fill="#ffffff" data-original="#000000" style="" class=""/><path xmlns="http://www.w3.org/2000/svg" d="m302.566406 274.199219h20.914063c13.417969 0 27.5-11.542969 30.128906-24.699219l4.054687-20.277344h-50.601562zm0 0" fill="#ffffff" data-original="#000000" style="" class=""/><path xmlns="http://www.w3.org/2000/svg" d="m310.0625 199.222656h53.601562l8.996094-44.980468h-58.097656zm0 0" fill="#ffffff" data-original="#000000" style="" class=""/><path xmlns="http://www.w3.org/2000/svg" d="m352.398438 417.734375h-33.199219v-34.269531h-126.398438v34.269531h-33.199219c-25.992187 0-47.132812 21.144531-47.132812 47.132813 0 25.988281 21.140625 47.132812 47.132812 47.132812h192.796876c25.992187 0 47.136718-21.144531 47.136718-47.132812-.003906-25.988282-21.144531-47.132813-47.136718-47.132813zm0 0" fill="#ffffff" data-original="#000000" style="" class=""/></g></svg>
