<?xml version="1.0"?>
<svg xmlns="http://www.w3.org/2000/svg" xmlns:xlink="http://www.w3.org/1999/xlink" xmlns:svgjs="http://svgjs.com/svgjs" version="1.1" width="512" height="512" x="0" y="0" viewBox="0 0 512 512" style="enable-background:new 0 0 512 512" xml:space="preserve" class=""><g>
<g xmlns="http://www.w3.org/2000/svg">
	<g>
		<path d="M120.5,120c-16.817,0-30.5,13.683-30.5,30.5s13.683,30.5,30.5,30.5s30.5-13.683,30.5-30.5S137.317,120,120.5,120z" fill="#ffffff" data-original="#000000" style="" class=""/>
	</g>
</g>
<g xmlns="http://www.w3.org/2000/svg">
	<g>
		<path d="M115,0C51.589,0,0,51.589,0,115v282c0,63.411,51.589,115,115,115h126V0H115z M120.5,211C87.141,211,60,183.859,60,150.5    S87.141,90,120.5,90s60.5,27.141,60.5,60.5S153.859,211,120.5,211z" fill="#ffffff" data-original="#000000" style="" class=""/>
	</g>
</g>
<g xmlns="http://www.w3.org/2000/svg">
	<g>
		<path d="M391.5,257c-16.817,0-30.5,13.683-30.5,30.5c0,16.817,13.683,30.5,30.5,30.5c16.817,0,30.5-13.683,30.5-30.5    C422,270.683,408.317,257,391.5,257z" fill="#ffffff" data-original="#000000" style="" class=""/>
	</g>
</g>
<g xmlns="http://www.w3.org/2000/svg">
	<g>
		<path d="M397,0H271v512h126c63.411,0,115-51.589,115-115V115C512,51.589,460.411,0,397,0z M391.5,348    c-33.359,0-60.5-27.141-60.5-60.5s27.141-60.5,60.5-60.5s60.5,27.141,60.5,60.5S424.859,348,391.5,348z" fill="#ffffff" data-original="#000000" style="" class=""/>
	</g>
</g>
<g xmlns="http://www.w3.org/2000/svg">
</g>
<g xmlns="http://www.w3.org/2000/svg">
</g>
<g xmlns="http://www.w3.org/2000/svg">
</g>
<g xmlns="http://www.w3.org/2000/svg">
</g>
<g xmlns="http://www.w3.org/2000/svg">
</g>
<g xmlns="http://www.w3.org/2000/svg">
</g>
<g xmlns="http://www.w3.org/2000/svg">
</g>
<g xmlns="http://www.w3.org/2000/svg">
</g>
<g xmlns="http://www.w3.org/2000/svg">
</g>
<g xmlns="http://www.w3.org/2000/svg">
</g>
<g xmlns="http://www.w3.org/2000/svg">
</g>
<g xmlns="http://www.w3.org/2000/svg">
</g>
<g xmlns="http://www.w3.org/2000/svg">
</g>
<g xmlns="http://www.w3.org/2000/svg">
</g>
<g xmlns="http://www.w3.org/2000/svg">
</g>
</g></svg>
