<?xml version="1.0"?>
<svg xmlns="http://www.w3.org/2000/svg" xmlns:xlink="http://www.w3.org/1999/xlink" xmlns:svgjs="http://svgjs.com/svgjs" version="1.1" width="512" height="512" x="0" y="0" viewBox="0 0 512 512" style="enable-background:new 0 0 512 512" xml:space="preserve" class=""><g><g xmlns="http://www.w3.org/2000/svg" id="Solid"><circle cx="144" cy="208" r="24" fill="#ffffff" data-original="#000000" style="" class=""/><circle cx="320" cy="280" r="24" fill="#ffffff" data-original="#000000" style="" class=""/><path d="M324.411,130.561a38.186,38.186,0,0,1,41.839-10.983l25.615,9.315-6.12-18.36-35.252-10.071a32.1,32.1,0,0,0-25.254,3.326l-17.928,10.756L320.8,134.776Z" fill="#ffffff" data-original="#000000" style="" class=""/><path d="M219.68,168h72.64l17.662-20.6L291.719,120H220.281l-18.263,27.4ZM248,136h16v16H248Z" fill="#ffffff" data-original="#000000" style="" class=""/><path d="M187.589,130.56l3.613,4.215,13.487-20.231-17.924-10.753a32.108,32.108,0,0,0-25.259-3.328l-35.251,10.07-6.12,18.36,25.615-9.315A38.186,38.186,0,0,1,187.589,130.56Z" fill="#ffffff" data-original="#000000" style="" class=""/><path d="M473.825,331.046l-43.989-157.1A32.065,32.065,0,0,0,409.957,152.5l-49.176-17.882a22.1,22.1,0,0,0-24.221,6.358l-34.486,40.233A8,8,0,0,1,296,184H216a8,8,0,0,1-6.074-2.794L175.44,140.973a22.1,22.1,0,0,0-24.221-6.358L102.043,152.5a32.065,32.065,0,0,0-19.879,21.445l-43.989,157.1A166.686,166.686,0,0,0,32,376a40.053,40.053,0,0,0,36.812,39.874l72.844-72.844A23.846,23.846,0,0,1,158.627,336H353.373a23.846,23.846,0,0,1,16.971,7.03l72.844,72.844A40.053,40.053,0,0,0,480,376,166.686,166.686,0,0,0,473.825,331.046ZM280,200h16v16H280ZM144,248a40,40,0,1,1,40-40A40.045,40.045,0,0,1,144,248Zm80,40H200v24H184V288H160V272h24V248h16v24h24Zm8-72H216V200h16Zm88,104a40,40,0,1,1,40-40A40.045,40.045,0,0,1,320,320Zm40-104H344V200h16Zm24,24H368V224h16Zm0-48H368V176h16Zm24,24H392V200h16Z" fill="#ffffff" data-original="#000000" style="" class=""/></g></g></svg>
